<svg width="224" height="32" viewBox="0 0 224 32" fill="none" xmlns="http://www.w3.org/2000/svg">
<path fill-rule="evenodd" clip-rule="evenodd" d="M148.231 2.5H143.297C143.155 2.5 143.058 2.644 143.112 2.7755L151.565 23.545C151.632 23.711 151.868 23.711 151.935 23.545L154.438 17.401C154.478 17.304 154.478 17.196 154.438 17.099L148.601 2.7495C148.54 2.5985 148.393 2.5 148.231 2.5ZM137.731 2.5H132.797C132.655 2.5 132.558 2.644 132.612 2.7755L141.065 23.545C141.132 23.711 141.368 23.711 141.435 23.545L143.938 17.401C143.978 17.304 143.978 17.196 143.938 17.099L138.101 2.7495C138.04 2.5985 137.893 2.5 137.731 2.5ZM159.5 4.75C159.5 3.231 158.268 2 156.75 2C155.231 2 154 3.231 154 4.75C154 6.269 155.231 7.5 156.75 7.5C158.268 7.5 159.5 6.269 159.5 4.75ZM6.5 21.25C6.5 22.769 5.2685 24 3.75 24C2.2315 24 1 22.769 1 21.25C1 19.731 2.2315 18.5 3.75 18.5C5.2685 18.5 6.5 19.731 6.5 21.25ZM17.2025 23.5H12.269C12.1065 23.5 11.96 23.4015 11.8985 23.2505L6.0615 8.901C6.022 8.804 6.022 8.696 6.0615 8.599L8.5645 2.455C8.6325 2.289 8.8675 2.289 8.935 2.455L17.3875 23.2245C17.4415 23.356 17.3445 23.5 17.2025 23.5ZM222.98 19.7344C222.792 21.8288 221.003 23.0908 218.578 23.4359C218.469 23.4513 218.418 23.3109 218.51 23.2519C218.925 22.9874 219.187 22.5978 219.249 21.9038C219.442 19.7495 217.49 18.7229 215.436 17.6431C213.159 16.4453 210.757 15.1821 211.02 12.2418C211.186 10.3899 213.103 8.94285 215.411 8.57085C215.517 8.55335 215.574 8.69735 215.483 8.75435C214.91 9.10985 214.537 9.63835 214.478 10.2979C214.306 12.2169 216.209 13.1649 218.26 14.1866C220.656 15.3801 223.254 16.6742 222.98 19.7344ZM25.5 23.2999V8.69995C25.5 8.58945 25.4105 8.49995 25.3 8.49995H21.2C21.0895 8.49995 21 8.58945 21 8.69995V23.2999C21 23.4104 21.0895 23.5 21.2 23.5H25.3C25.4105 23.5 25.5 23.4104 25.5 23.2999ZM34 13.7857V23.3001C34 23.4106 33.9105 23.5001 33.8 23.5001H29.7C29.5895 23.5001 29.5 23.4106 29.5 23.3001V11.7501C29.5 9.49015 28.988 8.63865 28.0955 8.51815C27.9855 8.50365 27.971 8.34665 28.0935 8.31815C28.241 8.28415 28.5 8.25015 29 8.25015C32.25 8.25015 34 10.3277 34 13.7857ZM43.9359 23.5431L46.4389 17.3996C46.4779 17.3036 46.4784 17.1961 46.4399 17.1001L43.1004 8.75165C43.0399 8.59965 42.8924 8.50015 42.7289 8.50015H37.7964C37.6549 8.50015 37.5574 8.64315 37.611 8.77465L43.5654 23.5426C43.6329 23.7091 43.8679 23.7096 43.9359 23.5431ZM57.4389 17.3996L54.9359 23.5431C54.8679 23.7096 54.6329 23.7091 54.5654 23.5426L48.611 8.77465C48.5574 8.64315 48.6549 8.50015 48.7964 8.50015H53.7289C53.8924 8.50015 54.0399 8.59965 54.1004 8.75165L57.4399 17.1001C57.4784 17.1961 57.4779 17.3036 57.4389 17.3996ZM63.9359 23.5431L66.4389 17.3996C66.4779 17.3036 66.4784 17.1961 66.4399 17.1001L63.1004 8.75165C63.0399 8.59965 62.8924 8.50015 62.7289 8.50015H57.7965C57.655 8.50015 57.5575 8.64315 57.611 8.77465L63.5654 23.5426C63.6329 23.7091 63.8679 23.7096 63.9359 23.5431ZM83.9966 13.7857V23.3001C83.9966 23.4106 83.9066 23.5001 83.7966 23.5001H79.6961C79.5861 23.5001 79.4966 23.4106 79.4966 23.3001V11.7501C79.4966 9.49015 78.9846 8.63865 78.0916 8.51815C77.9821 8.50365 77.9671 8.34665 78.0896 8.31815C78.2376 8.28415 78.4966 8.25015 78.9966 8.25015C82.2466 8.25015 83.9966 10.3277 83.9966 13.7857ZM75.5 23.2999V2.69995C75.5 2.58945 75.4105 2.49995 75.3 2.49995H71.2C71.0895 2.49995 71 2.58945 71 2.69995V23.2999C71 23.4104 71.0895 23.5 71.2 23.5H75.3C75.4105 23.5 75.5 23.4104 75.5 23.2999ZM87.5 16.1135V15.6055C87.543 11.828 89.949 8.69805 93.1345 8.04955C93.225 8.03105 93.29 8.14105 93.2285 8.21055C92.584 8.94405 92.5 10.8575 92.5 15.6055C92.5005 16.452 92.501 16.993 92.502 17.228C92.53 21.0956 92.8895 23.4785 96 23.4785C96.3795 23.4785 96.6955 23.466 97.038 23.4415C97.1735 23.432 97.1945 23.5945 97.0925 23.6345C96.5165 23.857 95.9175 23.9865 95 23.9865C94.0425 23.9865 93.076 23.803 91.7515 23.2245C89.276 22.0735 87.5365 19.3215 87.5 16.1135ZM101.5 16.3007C101.5 16.0642 101.5 15.6907 101.5 15.6057C101.479 11.8277 99.051 8.6987 95.8655 8.0497C95.775 8.0312 95.7105 8.1412 95.7715 8.2107C96.416 8.9442 96.5 10.8577 96.5 15.6057V16.3002C96.5 16.4102 96.5895 16.5002 96.7 16.5002H101.3C101.41 16.5002 101.5 16.4107 101.5 16.3007ZM105.2 8.5H109.3C109.411 8.5 109.5 8.5895 109.5 8.7V23.3C109.5 23.4105 109.411 23.5 109.3 23.5H105.2C105.089 23.5 105 23.4105 105 23.3V8.7C105 8.5895 105.089 8.5 105.2 8.5ZM113.75 8.5C115.269 8.5 116.5 9.731 116.5 11.25C116.5 12.769 115.269 14 113.75 14C112.232 14 111 12.769 111 11.25C111 9.731 112.232 8.5 113.75 8.5ZM174.5 15.9865C174.457 19.7045 172.052 22.7845 168.867 23.424C168.777 23.4425 168.713 23.332 168.774 23.2625C169.416 22.5385 169.5 20.653 169.5 15.9865V15.4865C169.5 10.82 169.416 8.93455 168.774 8.21055C168.713 8.14105 168.777 8.03055 168.867 8.04905C172.052 8.68855 174.457 11.7685 174.5 15.4865V15.9865ZM160 15.9865V15.4865C160.043 11.7685 162.448 8.68855 165.632 8.04905C165.723 8.03055 165.787 8.14105 165.725 8.21055C165.084 8.93455 165 10.82 165 15.4865V15.9865C165 20.653 165.084 22.5385 165.725 23.2625C165.787 23.332 165.723 23.4425 165.632 23.424C162.448 22.7845 160.043 19.7045 160 15.9865ZM190 11.2366C190 9.71755 188.768 8.48655 187.25 8.48655C185.732 8.48655 184.5 9.71755 184.5 11.2366C184.5 12.7556 185.732 13.9866 187.25 13.9866C188.768 13.9866 190 12.7556 190 11.2366ZM178.7 8.5H182.8C182.911 8.5 183 8.5895 183 8.7V23.3C183 23.4105 182.911 23.5 182.8 23.5H178.7C178.589 23.5 178.5 23.4105 178.5 23.3V8.7C178.5 8.5895 178.589 8.5 178.7 8.5ZM197.3 23.5C197.411 23.5 197.5 23.4105 197.5 23.3V2.70005C197.5 2.58955 197.411 2.50005 197.3 2.50005H193.2C193.089 2.50005 193 2.58955 193 2.70005V23.3C193 23.4105 193.089 23.5 193.2 23.5H197.3ZM199.085 17.1363C199.034 17.0633 199.038 16.9663 199.094 16.8968L202.08 13.1828C202.168 13.0893 202.319 13.1003 202.392 13.2058L209.283 23.1863C209.375 23.3193 209.28 23.5002 209.118 23.5002H203.714C203.58 23.5002 203.455 23.4333 203.381 23.3218L199.085 17.1363ZM118 15.6055V16.1135C118.036 19.3215 119.776 22.0735 122.252 23.2245C123.576 23.803 124.543 23.9865 125.5 23.9865C126.418 23.9865 127.017 23.857 127.593 23.6345C127.695 23.5945 127.674 23.432 127.538 23.4415C127.196 23.466 126.88 23.4785 126.5 23.4785C123.39 23.4785 123.03 21.0956 123.002 17.228C123.001 16.993 123.001 16.452 123 15.6055C123 10.8575 123.084 8.94405 123.729 8.21055C123.79 8.14105 123.725 8.03105 123.635 8.04955C120.449 8.69805 118.043 11.828 118 15.6055ZM132 15.6057V16.3002C132 16.4102 131.911 16.5002 131.8 16.5002H127.2C127.09 16.5002 127 16.4102 127 16.3002V15.6057C127 10.8577 126.916 8.9442 126.271 8.2107C126.21 8.1412 126.275 8.0312 126.365 8.0497C129.551 8.6987 131.957 11.8282 132 15.6057ZM211.701 19.4981H212.502C214.158 19.4981 215.502 20.8416 215.502 22.4981V23.298C215.502 23.4086 215.412 23.4981 215.302 23.4981H211.701C211.591 23.4981 211.502 23.4086 211.502 23.298V19.6981C211.502 19.5876 211.591 19.4981 211.701 19.4981ZM221 12.5H221.8C221.911 12.5 222 12.4105 222 12.3V8.7C222 8.5895 221.911 8.5 221.8 8.5H218.2C218.089 8.5 218 8.5895 218 8.7V9.5C218 11.1565 219.344 12.5 221 12.5ZM42 27.25C42 25.731 40.7685 24.5 39.25 24.5C37.7315 24.5 36.5 25.731 36.5 27.25C36.5 28.769 37.7315 30 39.25 30C40.7685 30 42 28.769 42 27.25Z" fill="#F8F8F8"/>
</svg>
