<svg width="240" height="40" viewBox="0 0 240 40" fill="none" xmlns="http://www.w3.org/2000/svg">
<g clip-path="url(#clip0_103_154)">
<path d="M153.418 10.038H146.436V30.3H149.928V22.774H153.392C155.93 22.774 157.476 21.678 158.326 20.758C159.384 19.614 159.99 18.056 159.99 16.484C159.99 14.912 159.394 13.312 158.352 12.138C157.504 11.18 155.96 10.04 153.416 10.04L153.418 10.038ZM149.93 21.788V11.584H152.906C154.14 11.584 157.01 12.076 157.01 16.634C157.01 18.176 156.61 21.762 152.906 21.762C152.368 21.762 151.816 21.768 151.264 21.774C150.816 21.78 150.37 21.784 149.93 21.786V21.788Z" fill="#293D31"/>
<path d="M168.896 10.038H165.404V30.3H178.394V29.368H168.896V10.038Z" fill="#293D31"/>
<path d="M187.934 10.038L181.1 30.3H182.168L184.728 22.67H191.976L194.536 30.3H198.37L191.536 10.038H187.93H187.934ZM185.034 21.712L188.352 11.918L191.624 21.712H185.034Z" fill="#293D31"/>
<path d="M219.406 24.058C218.014 27.814 215.162 29.494 212.954 29.494C209.7 29.494 206.418 26.642 206.418 20.27C206.418 14.766 208.622 11.61 212.468 11.61C214.976 11.61 216.136 13.922 216.368 15.902L216.4 16.168H220.216L220.104 15.784C219.1 12.332 216.102 10.012 212.648 10.012C209.576 10.012 207.006 10.87 205.212 12.496C203.238 14.284 202.236 16.9 202.236 20.27C202.236 23.64 203.322 26.24 205.378 28.048C207.198 29.648 209.78 30.53 212.648 30.53C216.218 30.53 219.12 28.184 220.408 24.256L220.538 23.862H219.48L219.408 24.058H219.406Z" fill="#293D31"/>
<path d="M240 11.048V10.038H226.446V30.3H240V29.368H229.99V20.212H237.876V19.254H229.99V11.048H240Z" fill="#293D31"/>
<path d="M0 10.038H3.492V29.368H12.992V30.3H0V10.038Z" fill="#293D31"/>
<path d="M16.448 10.038H19.94V30.3H16.448V10.038Z" fill="#293D31"/>
<path d="M41.648 15.502L41.402 15.058C39.106 10.892 36.464 10.038 33.202 10.038C29.536 10.038 26.552 12.412 26.552 15.33C26.552 17.198 27.396 18.614 29.06 19.534L36.584 23.808C37.768 24.492 37.868 25.67 37.868 26.722C37.868 28.41 36.528 29.546 34.532 29.546C32.536 29.546 30.67 27.724 29.906 24.904L29.846 24.682H25.004L25.196 25.106C26.826 28.706 29.89 30.53 34.302 30.53C38.714 30.53 41.396 28.65 41.488 25.372C41.542 23.02 40.476 21.984 38.216 20.676L31.432 16.734C30.352 16.108 29.968 14.844 29.968 13.87C29.968 12.26 31.468 11.046 33.456 11.046C35.444 11.046 37.048 12.832 37.048 15.2V15.5H41.646L41.648 15.502Z" fill="#293D31"/>
<path d="M49.216 11.048H42.734V10.038H59.216V11.048H52.734V30.3H49.216V11.048Z" fill="#293D31"/>
<path d="M62.794 30.3H75.748V29.368H66.338V20.212H73.622V19.254H66.338V11.048H75.748V10.038H62.794V30.3Z" fill="#293D31"/>
<path fill-rule="evenodd" clip-rule="evenodd" d="M93.934 16.226C93.934 18.936 92.198 21.084 89.564 21.704H89.562L95.646 30.3H91.686L85.798 22.03H84.128V30.3H80.636V10.038H87.648C91.172 10.088 93.934 12.806 93.934 16.226ZM86.98 11.584H84.13V21.02H87.004C89.94 21.02 91.006 18.244 91.006 16.378C91.006 14.72 90.164 11.584 86.98 11.584Z" fill="#293D31"/>
<path d="M112.48 2.48H111.68V3.92H112.48V2.48Z" fill="#293D31"/>
<path d="M113.942 2.48H114.742V3.92H113.942V2.48Z" fill="#293D31"/>
<path d="M117.006 2.48H116.206V3.92H117.006V2.48Z" fill="#293D31"/>
<path d="M118.468 2.48H119.268V3.92H118.468V2.48Z" fill="#293D31"/>
<path d="M121.532 2.48H120.732V3.92H121.532V2.48Z" fill="#293D31"/>
<path d="M122.994 2.48H123.794V3.92H122.994V2.48Z" fill="#293D31"/>
<path d="M126.058 2.48H125.258V3.92H126.058V2.48Z" fill="#293D31"/>
<path d="M127.52 2.48H128.32V3.92H127.52V2.48Z" fill="#293D31"/>
<path d="M124.2 32.32H126.12V33.12H124.2V32.32Z" fill="#293D31"/>
<path fill-rule="evenodd" clip-rule="evenodd" d="M108.8 39.6V0.399994H131.2V39.6H108.8ZM130.4 5.19999V1.19999H109.6V5.19999H130.4ZM115.24 32.08H117.2V29.04H115.24V32.08ZM115.24 28.24H117.2V25.2H115.24V28.24ZM112.48 28.24H114.44V25.2H112.48V28.24ZM114.44 29.04H112.48V32.08H114.44V29.04ZM114.44 32.88H112.48V35.92H114.44V32.88ZM117.2 32.88H115.24V35.92H117.2V32.88ZM111.68 35.92V24.4H118V35.92H122V22.32H109.6V35.92H111.68ZM122.8 22.32V24.4H127.52V22.32H122.8ZM127.52 25.2H122.8V35.92H127.52V25.2ZM128.32 22.32V35.92H130.4V22.32H128.32ZM109.6 19.44V21.52H130.4V19.44H109.6ZM115.24 15.92V18.64H117.2V15.92H115.24ZM115.24 15.12H117.2V12.4H115.24V15.12ZM115.24 11.6H117.2V8.87999H115.24V11.6ZM112.48 11.6H114.44V8.87999H112.48V11.6ZM114.44 12.4H112.48V15.12H114.44V12.4ZM114.44 15.92H112.48V18.64H114.44V15.92ZM125.56 15.92V18.64H127.52V15.92H125.56ZM125.56 15.12H127.52V12.4H125.56V15.12ZM125.56 11.6H127.52V8.87999H125.56V11.6ZM122.8 11.6H124.76V8.87999H122.8V11.6ZM124.76 12.4H122.8V15.12H124.76V12.4ZM124.76 15.92H122.8V18.64H124.76V15.92ZM128.32 8.07999V18.64H130.4V5.99999H109.6V18.64H111.68V8.07999H118V18.64H122V8.07999H128.32ZM109.6 36.72V38.8H130.4V36.72H109.6Z" fill="#293D31"/>
</g>
<defs>
<clipPath id="clip0_103_154">
<rect width="240" height="40" fill="white"/>
</clipPath>
</defs>
</svg>
