<svg width="24" height="24" viewBox="0 0 25 24" xmlns="http://www.w3.org/2000/svg" fill="none" class="ml-3 mr-3 fx--no-shrink"><path d="M11.9467 15.8326C15.1574 16.7281 18.3951 14.3274 18.9081 10.7365C19.3895 7.35704 17.2656 4.51311 14.4757 4.07887C11.2515 3.57489 8.79907 5.53909 8.25008 8.45951C7.74159 11.1774 10.185 12.7389 11.5283 12.7997C12.9457 12.8649 14.3564 12.1877 15.0404 10.3067C15.7244 8.42576 13.9222 7.27604 12.417 8.48426C10.7183 9.84773 10.293 13.4409 9.95104 14.9776C9.3503 17.691 7.6876 20.022 5.4849 19.4167C1.867 18.4223 3.7097 13.3284 6.90687 14.4151C9.3188 15.2363 8.64382 17.5493 11.6835 18.9667C14.8244 20.4315 20.4988 18.3323 21.5 12.3722" stroke-miterlimit="10" stroke="#CACABE"></path></svg>